<svg width="7.199493" height="11.984985" viewBox="0 0 7.19949 11.985" fill="none" xmlns="http://www.w3.org/2000/svg" xmlns:xlink="http://www.w3.org/1999/xlink">
	<desc>
			Created with Pixso.
	</desc>
	<defs/>
	<path id="Vector" d="M0.35 11.63C0.12 11.4 0 11.1 0 10.78C0 10.46 0.12 10.16 0.35 9.93L4.3 5.98L0.35 2.03C0.13 1.8 0.01 1.5 0.01 1.18C0.01 0.87 0.14 0.57 0.36 0.35C0.58 0.12 0.88 0 1.2 3.05e-5C1.51 -0.01 1.82 0.11 2.04 0.33L6.84 5.13C7.07 5.36 7.19 5.66 7.19 5.98C7.19 6.3 7.07 6.6 6.84 6.83L2.04 11.63C1.82 11.85 1.51 11.98 1.19 11.98C0.88 11.98 0.57 11.85 0.35 11.63Z" fill="#FFFFFF" fill-opacity="1.000000" fill-rule="evenodd"/>
</svg>
