<svg width="7.199493" height="11.984985" viewBox="0 0 7.19949 11.985" fill="none" xmlns="http://www.w3.org/2000/svg" xmlns:xlink="http://www.w3.org/1999/xlink">
	<desc>
			Created with Pixso.
	</desc>
	<defs/>
	<path id="Vector" d="M6.84 0.35C7.07 0.57 7.19 0.88 7.19 1.19C7.19 1.51 7.07 1.82 6.84 2.04L2.89 5.99L6.84 9.95C7.06 10.17 7.18 10.48 7.18 10.79C7.18 11.11 7.05 11.41 6.83 11.63C6.61 11.85 6.31 11.98 5.99 11.98C5.68 11.98 5.37 11.86 5.15 11.64L0.35 6.84C0.12 6.62 0 6.31 0 5.99C0 5.68 0.12 5.37 0.35 5.15L5.15 0.35C5.37 0.12 5.68 0 5.99 0C6.31 0 6.62 0.12 6.84 0.35Z" fill="#FFFFFF" fill-opacity="1.000000" fill-rule="evenodd"/>
</svg>
