<svg width="30" height="30" viewBox="0 0 32 31.9999" fill="none" xmlns="http://www.w3.org/2000/svg" xmlns:xlink="http://www.w3.org/1999/xlink">
	<desc>
			Created with Pixso.
	</desc>
	<defs/>
	<path id="Vector" d="M32 16.36C32 15.22 31.89 14.13 31.7 13.09L16.32 13.09L16.32 19.28L25.11 19.28C24.73 21.28 23.58 22.97 21.85 24.1L21.85 28.12L27.13 28.12C30.21 25.33 32 21.23 32 16.36Z" fill="#4285F4" fill-opacity="1.000000" fill-rule="evenodd"/>
	<path id="Vector" d="M16.32 31.99C20.73 31.99 24.43 30.56 27.13 28.12L21.85 24.1C20.39 25.06 18.52 25.63 16.32 25.63C12.07 25.63 8.47 22.82 7.19 19.04L1.73 19.04L1.73 23.18C4.42 28.41 9.94 31.99 16.32 31.99Z" fill="#34A853" fill-opacity="1.000000" fill-rule="evenodd"/>
	<path id="Vector" d="M7.19 19.04C6.86 18.08 6.67 17.05 6.67 16C6.67 14.94 6.86 13.92 7.19 12.96L7.19 8.81L1.73 8.81C0.63 10.97 0 13.41 0 16C0 18.58 0.63 21.02 1.73 23.18L7.19 19.04Z" fill="#FBBC05" fill-opacity="1.000000" fill-rule="evenodd"/>
	<path id="Vector" d="M16.32 6.36C18.72 6.36 20.87 7.17 22.56 8.75L27.25 4.16C24.42 1.58 20.72 0 16.32 0C9.94 0 4.42 3.58 1.73 8.81L7.19 12.96C8.47 9.17 12.07 6.36 16.32 6.36Z" fill="#EA4335" fill-opacity="1.000000" fill-rule="evenodd"/>
</svg>
